<svg t="1719295856324" class="icon" viewBox="0 0 1111 1024" version="1.1" xmlns="http://www.w3.org/2000/svg" p-id="43090" width="1920" height="1920"><path d="M326.777879 361.123202C19.06084 288.923052 50.828906 105.534671 50.828906 105.534671 51.550907-7.386364 152.486717-46.374445 187.72039 72.322602c33.212069 110.321829 109.022227 131.837474 197.684011 124.184258 53.861312-4.76521 96.459401 51.262107 83.318973 103.679415-8.808418 38.121679-49.962504 76.243359-141.945495 60.936927z" fill="#50BC5F" p-id="43091"></path><path d="M1087.33426 489.495069C956.218788 648.6242 858.459785 577.723652 858.459785 577.723652c-65.846537-33.067669-59.492924-103.390615 20.649243-89.816986 74.077354 12.418426 108.589026-25.703253 129.96027-79.853366a54.727714 54.727714 0 0 1 84.907376-18.77204c18.916439 15.884033 29.02446 51.262107-6.642414 100.213809z" fill="#DFA2EA" p-id="43092"></path><path d="M816.728098 869.84546c-291.544206-122.018254-230.029678-297.031418-230.029678-297.031418C606.481261 462.203412 712.03788 439.821366 727.633113 563.283622c14.44003 114.365038 85.629378 148.010308 174.435562 155.085923 53.861312 4.332009 86.64018 66.568538 64.980135 115.52024-15.450832 35.955675-62.814131 66.712939-150.320712 35.955675z" fill="#F9B264" p-id="43093"></path><path d="M453.705743 983.777296C581.211208 809.486134 476.520991 722.845954 476.520991 722.845954c-54.438913-61.803328-126.205862-39.132481-87.939783 42.020487 35.233673 75.232556 5.631612 120.28545-44.619693 154.797122-30.612864 20.938044-26.280855 70.467346 5.776012 93.571395 23.248448 16.461634 63.391732 19.20524 103.968216-29.457662z" fill="#EF5454" p-id="43094"></path><path d="M377.462385 627.397356C137.035885 800.388915 24.548051 646.746996 24.548051 646.746996c-52.70611-70.178546-14.44003-144.4003 62.52533-104.257017 103.968216 53.283711 139.923891-11.407624 196.384408-69.023344 42.020487-43.32009 94.004595-32.634468 127.361065 12.562827 23.97045 32.345667 9.81922 104.979018-33.356469 141.367894z" fill="#FF66A1" p-id="43095"></path><path d="M626.841703 39.688134C923.006719 43.442542 922.284717 233.906537 922.284717 233.906537c0.722002 87.795383-73.499753 124.90626-112.343433 46.641297-51.984108-104.690218-119.274648-73.932954-198.839214-61.081327-59.204123 9.53042-95.015398-28.88006-95.015397-85.773778-0.1444-40.287684 54.294513-90.250188 110.75503-94.004595z" fill="#59CEEA" p-id="43096"></path></svg>